HIERARCHY
ROOT Root
{
  OFFSET 0.0 0.0 0.0
  CHANNELS 6 Xposition Yposition Zposition Zrotation Yrotation Xrotation
  JOINT Hips
  {
    OFFSET 0.0 100.0 0.0
    CHANNELS 6 Xposition Yposition Zposition Zrotation Yrotation Xrotation
    JOINT Spine1
    {
      OFFSET 5.003913 -0.037094 -0.013727
      CHANNELS 3 Zrotation Yrotation Xrotation
      JOINT Spine2
      {
        OFFSET 7.125363 -1e-06 0.0
        CHANNELS 3 Zrotation Yrotation Xrotation
        JOINT Chest
        {
          OFFSET 7.594027 1e-06 0.0
          CHANNELS 3 Zrotation Yrotation Xrotation
          JOINT Neck1
          {
            OFFSET 26.313086 -0.460272 -0.181672
            CHANNELS 3 Zrotation Yrotation Xrotation
            JOINT Neck2
            {
              OFFSET 8.045911 0.0 0.0
              CHANNELS 3 Zrotation Yrotation Xrotation
              JOINT Head
              {
                OFFSET 6.432774 0.0 0.0
                CHANNELS 3 Zrotation Yrotation Xrotation
                JOINT HeadEnd
                {
                  OFFSET 16.169773 0.06451 0.00362
                  CHANNELS 3 Zrotation Yrotation Xrotation
                }
                JOINT Jaw
                {
                  OFFSET 0.108741 3.12938 0.002639
                  CHANNELS 3 Zrotation Yrotation Xrotation
                }
                JOINT LeftEye
                {
                  OFFSET 4.45173 8.166359 3.206392
                  CHANNELS 3 Zrotation Yrotation Xrotation
                }
                JOINT RightEye
                {
                  OFFSET 4.436895 8.135758 -3.222429
                  CHANNELS 3 Zrotation Yrotation Xrotation
                }
              }
            }
          }
          JOINT LeftShoulder
          {
            OFFSET 23.218927 5.195579 1.621656
            CHANNELS 3 Zrotation Yrotation Xrotation
            JOINT LeftArm
            {
              OFFSET 15.902118 2e-06 -2e-06
              CHANNELS 3 Zrotation Yrotation Xrotation
              JOINT LeftForeArm
              {
                OFFSET 28.739307 0.0 -1e-06
                CHANNELS 3 Zrotation Yrotation Xrotation
                JOINT LeftHand
                {
                  OFFSET 27.093981 -4e-06 0.0
                  CHANNELS 3 Zrotation Yrotation Xrotation
                  JOINT LeftHandThumb1
                  {
                    OFFSET 2.276781 3.380274 0.83384
                    CHANNELS 3 Zrotation Yrotation Xrotation
                    JOINT LeftHandThumb2
                    {
                      OFFSET 4.705309 -1e-06 -1e-06
                      CHANNELS 3 Zrotation Yrotation Xrotation
                      JOINT LeftHandThumb3
                      {
                        OFFSET 2.798515 0.0 3e-06
                        CHANNELS 3 Zrotation Yrotation Xrotation
                        JOINT LeftHandThumbEnd
                        {
                          OFFSET 3.180793 4e-06 -4e-06
                          CHANNELS 3 Zrotation Yrotation Xrotation
                        }
                      }
                    }
                  }
                  JOINT LeftHandIndex1
                  {
                    OFFSET 3.247786 2.352677 0.137192
                    CHANNELS 3 Zrotation Yrotation Xrotation
                    JOINT LeftHandIndex2
                    {
                      OFFSET 6.367095 1e-06 0.0
                      CHANNELS 3 Zrotation Yrotation Xrotation
                      JOINT LeftHandIndex3
                      {
                        OFFSET 3.662364 0.0 0.0
                        CHANNELS 3 Zrotation Yrotation Xrotation
                        JOINT LeftHandIndex4
                        {
                          OFFSET 2.329242 4e-06 -4e-06
                          CHANNELS 3 Zrotation Yrotation Xrotation
                          JOINT LeftHandIndexEnd
                          {
                            OFFSET 2.767823 1e-06 0.0
                            CHANNELS 3 Zrotation Yrotation Xrotation
                          }
                        }
                      }
                    }
                  }
                  JOINT LeftHandMiddle1
                  {
                    OFFSET 3.163612 0.945023 -0.406112
                    CHANNELS 3 Zrotation Yrotation Xrotation
                    JOINT LeftHandMiddle2
                    {
                      OFFSET 6.276789 3e-06 0.0
                      CHANNELS 3 Zrotation Yrotation Xrotation
                      JOINT LeftHandMiddle3
                      {
                        OFFSET 4.35652 -1e-06 4e-06
                        CHANNELS 3 Zrotation Yrotation Xrotation
                        JOINT LeftHandMiddle4
                        {
                          OFFSET 2.996877 0.0 8e-06
                          CHANNELS 3 Zrotation Yrotation Xrotation
                          JOINT LeftHandMiddleEnd
                          {
                            OFFSET 2.323256 3e-06 -4e-06
                            CHANNELS 3 Zrotation Yrotation Xrotation
                          }
                        }
                      }
                    }
                  }
                  JOINT LeftHandRing1
                  {
                    OFFSET 2.882606 -0.309162 0.107445
                    CHANNELS 3 Zrotation Yrotation Xrotation
                    JOINT LeftHandRing2
                    {
                      OFFSET 6.033198 0.0 4e-06
                      CHANNELS 3 Zrotation Yrotation Xrotation
                      JOINT LeftHandRing3
                      {
                        OFFSET 4.350578 3e-06 0.0
                        CHANNELS 3 Zrotation Yrotation Xrotation
                        JOINT LeftHandRing4
                        {
                          OFFSET 2.651321 2e-06 -7e-06
                          CHANNELS 3 Zrotation Yrotation Xrotation
                          JOINT LeftHandRingEnd
                          {
                            OFFSET 1.937663 1e-06 -4e-06
                            CHANNELS 3 Zrotation Yrotation Xrotation
                          }
                        }
                      }
                    }
                  }
                  JOINT LeftHandPinky1
                  {
                    OFFSET 2.865315 -1.525436 0.575687
                    CHANNELS 3 Zrotation Yrotation Xrotation
                    JOINT LeftHandPinky2
                    {
                      OFFSET 5.54936 1e-06 -8e-06
                      CHANNELS 3 Zrotation Yrotation Xrotation
                      JOINT LeftHandPinky3
                      {
                        OFFSET 3.070974 0.0 -4e-06
                        CHANNELS 3 Zrotation Yrotation Xrotation
                        JOINT LeftHandPinky4
                        {
                          OFFSET 1.549672 1e-06 0.0
                          CHANNELS 3 Zrotation Yrotation Xrotation
                          JOINT LeftHandPinkyEnd
                          {
                            OFFSET 1.952123 0.0 0.0
                            CHANNELS 3 Zrotation Yrotation Xrotation
                          }
                        }
                      }
                    }
                  }
                }
              }
            }
          }
          JOINT RightShoulder
          {
            OFFSET 23.161716 5.296122 -1.380114
            CHANNELS 3 Zrotation Yrotation Xrotation
            JOINT RightArm
            {
              OFFSET -16.027195 -2e-06 1.1e-05
              CHANNELS 3 Zrotation Yrotation Xrotation
              JOINT RightForeArm
              {
                OFFSET -28.736639 4e-06 2e-06
                CHANNELS 3 Zrotation Yrotation Xrotation
                JOINT RightHand
                {
                  OFFSET -27.133619 6e-06 0.0
                  CHANNELS 3 Zrotation Yrotation Xrotation
                  JOINT RightHandThumb1
                  {
                    OFFSET -2.274328 -3.351035 -0.83067
                    CHANNELS 3 Zrotation Yrotation Xrotation
                    JOINT RightHandThumb2
                    {
                      OFFSET -4.703594 -3e-06 2e-06
                      CHANNELS 3 Zrotation Yrotation Xrotation
                      JOINT RightHandThumb3
                      {
                        OFFSET -2.794935 -4e-06 -3e-06
                        CHANNELS 3 Zrotation Yrotation Xrotation
                        JOINT RightHandThumbEnd
                        {
                          OFFSET -3.183852 4e-06 1e-06
                          CHANNELS 3 Zrotation Yrotation Xrotation
                        }
                      }
                    }
                  }
                  JOINT RightHandIndex1
                  {
                    OFFSET -3.253496 -2.33755 -0.127667
                    CHANNELS 3 Zrotation Yrotation Xrotation
                    JOINT RightHandIndex2
                    {
                      OFFSET -6.344434 0.0 0.0
                      CHANNELS 3 Zrotation Yrotation Xrotation
                      JOINT RightHandIndex3
                      {
                        OFFSET -3.654871 0.0 -8e-06
                        CHANNELS 3 Zrotation Yrotation Xrotation
                        JOINT RightHandIndex4
                        {
                          OFFSET -2.327586 -1e-06 0.0
                          CHANNELS 3 Zrotation Yrotation Xrotation
                          JOINT RightHandIndexEnd
                          {
                            OFFSET -2.770001 3e-06 8e-06
                            CHANNELS 3 Zrotation Yrotation Xrotation
                          }
                        }
                      }
                    }
                  }
                  JOINT RightHandMiddle1
                  {
                    OFFSET -3.168223 -0.944764 0.411762
                    CHANNELS 3 Zrotation Yrotation Xrotation
                    JOINT RightHandMiddle2
                    {
                      OFFSET -6.266691 -1e-06 -4e-06
                      CHANNELS 3 Zrotation Yrotation Xrotation
                      JOINT RightHandMiddle3
                      {
                        OFFSET -4.348901 0.0 0.0
                        CHANNELS 3 Zrotation Yrotation Xrotation
                        JOINT RightHandMiddle4
                        {
                          OFFSET -3.00024 2e-06 -4e-06
                          CHANNELS 3 Zrotation Yrotation Xrotation
                          JOINT RightHandMiddleEnd
                          {
                            OFFSET -2.321477 -4e-06 -4e-06
                            CHANNELS 3 Zrotation Yrotation Xrotation
                          }
                        }
                      }
                    }
                  }
                  JOINT RightHandRing1
                  {
                    OFFSET -2.885654 0.293261 -0.119232
                    CHANNELS 3 Zrotation Yrotation Xrotation
                    JOINT RightHandRing2
                    {
                      OFFSET -6.032835 -1e-06 -4e-06
                      CHANNELS 3 Zrotation Yrotation Xrotation
                      JOINT RightHandRing3
                      {
                        OFFSET -4.33881 0.0 -4e-06
                        CHANNELS 3 Zrotation Yrotation Xrotation
                        JOINT RightHandRing4
                        {
                          OFFSET -2.654903 -4e-06 -4e-06
                          CHANNELS 3 Zrotation Yrotation Xrotation
                          JOINT RightHandRingEnd
                          {
                            OFFSET -1.935122 0.0 4e-06
                            CHANNELS 3 Zrotation Yrotation Xrotation
                          }
                        }
                      }
                    }
                  }
                  JOINT RightHandPinky1
                  {
                    OFFSET -2.866241 1.503904 -0.60527
                    CHANNELS 3 Zrotation Yrotation Xrotation
                    JOINT RightHandPinky2
                    {
                      OFFSET -5.553177 -2e-06 0.0
                      CHANNELS 3 Zrotation Yrotation Xrotation
                      JOINT RightHandPinky3
                      {
                        OFFSET -3.062664 -1e-06 -4e-06
                        CHANNELS 3 Zrotation Yrotation Xrotation
                        JOINT RightHandPinky4
                        {
                          OFFSET -1.546529 2e-06 4e-06
                          CHANNELS 3 Zrotation Yrotation Xrotation
                          JOINT RightHandPinkyEnd
                          {
                            OFFSET -1.952341 0.0 -4e-06
                            CHANNELS 3 Zrotation Yrotation Xrotation
                          }
                        }
                      }
                    }
                  }
                }
              }
            }
          }
        }
      }
    }
    JOINT LeftLeg
    {
      OFFSET -8.443107 2.567604 10.043214
      CHANNELS 3 Zrotation Yrotation Xrotation
      JOINT LeftShin
      {
        OFFSET 43.229198 1e-06 -1e-06
        CHANNELS 3 Zrotation Yrotation Xrotation
        JOINT LeftFoot
        {
          OFFSET 42.298611 1e-06 1e-06
          CHANNELS 3 Zrotation Yrotation Xrotation
          JOINT LeftToeBase
          {
            OFFSET 14.165858 1e-06 0.0
            CHANNELS 3 Zrotation Yrotation Xrotation
            JOINT LeftToeEnd
            {
              OFFSET 6.7141 -0.234461 0.0
              CHANNELS 3 Zrotation Yrotation Xrotation
            }
          }
        }
      }
    }
    JOINT RightLeg
    {
      OFFSET -8.303923 2.592729 -10.047278
      CHANNELS 3 Zrotation Yrotation Xrotation
      JOINT RightShin
      {
        OFFSET -43.369682 0.0 1e-06
        CHANNELS 3 Zrotation Yrotation Xrotation
        JOINT RightFoot
        {
          OFFSET -42.260784 4e-06 2e-06
          CHANNELS 3 Zrotation Yrotation Xrotation
          JOINT RightToeBase
          {
            OFFSET -14.222245 -2e-06 -1e-06
            CHANNELS 3 Zrotation Yrotation Xrotation
            JOINT RightToeEnd
            {
              OFFSET -6.660062 0.232574 -2e-06
              CHANNELS 3 Zrotation Yrotation Xrotation
            }
          }
        }
      }
    }
  }
}
MOTION
Frames: 5
Frame Time: 0.03333333333333333
0.0 0.0 0.0 0.0 -0.0 0.0 -14.675628 99.058846 195.768799 95.686813 4.790412 79.826981 -0.021771 -2.272195 -0.482724 -10.585458 -0.938888 -0.53748 14.230186 -2.268752 -3.397511 11.697458 -3.060508 3.073991 -2.665849 -0.914354 1.225174 -32.954746 -0.326263 1.113372 6e-06 0.0 0.0 -0.01836 0.095819 0.115042 0.05695 0.055369 0.092589 0.049868 0.119639 0.144286 -108.930107 -67.698715 124.204697 10.868465 -22.033749 -0.167916 49.274361 -0.484924 -0.71527 2.027716 0.043074 -25.828247 17.636621 -26.322733 52.411194 -19.466663 -14.395598 29.410393 0.0 -8.774822 -1e-06 15.176586 -18.05089 6.60006 -0.609774 -1.795653 -3.889329 -4.807088 -11.04681 -2.937848 2e-06 -20.976013 -2e-06 -5.019967 -25.033556 -4.031879 8e-06 0.0 -0.0 -10.634534 -5.68697 -3.565587 10.573272 -17.922951 -3.113902 4e-06 -13.821209 1e-06 -0.501781 -31.181498 -4.027014 -11.903999 -59.227192 8.022563 -13.98271 -7.150198 -2.875042 13.772727 -8.401491 -3.218243 0.347735 -34.211544 0.771654 -0.963032 -17.733366 2.62102 1e-06 -0.0 -0.0 -17.346416 -20.095219 -4.20178 21.757555 -1.638373 3.866426 0.0 -6.338822 1e-06 -1.697588 -22.591742 -6.194006 -1e-06 -6e-06 -2e-06 75.341827 -72.150879 119.508163 4.546556 -34.851734 17.372274 51.665745 -0.31185 0.545894 -2.469942 -1.120033 4.210897 22.18211 -20.375891 49.933319 -16.701817 -16.74353 28.476534 -2e-06 -12.690601 -1e-06 16.366449 -17.983866 2.823486 -0.105918 -1.513855 -4.275882 -5.039042 -5.612872 -2.953557 4e-06 -11.02052 -2e-06 -6.111299 -15.89533 -3.84047 -0.0 -0.0 -0.0 -10.283372 -5.680288 -4.341839 11.028296 -11.302404 -2.372634 -1.384268 -14.238581 -6.320121 -0.625438 -26.924191 -3.827602 -3.861212 -50.178776 -3.669984 -13.708526 -7.363473 -3.72094 18.14115 -14.052739 -3.242676 5e-06 -18.78727 -2e-06 -0.429711 -8.456043 2.555505 0.0 -0.0 -0.0 -15.923538 -20.094482 -5.473583 30.419218 -7.190826 1.735923 3e-06 -8.162925 -1e-06 -1.861902 -22.861467 -6.167942 0.0 -3e-06 -2e-06 -176.557175 11.012265 -10.885249 6.577073 -0.102055 -0.036864 -76.730064 -6.759797 -0.742169 -8.328413 1.610085 1.984402 -1.0 0.0 0.0 -9.818868 -14.139812 3.934549 73.229782 -0.798638 0.610258 -53.172318 13.158841 -3.841232 -9.986853 0.762716 1.552557 -1.000001 0.0 0.0 
0.0 0.0 0.0 0.0 -0.0 0.0 -14.569542 99.098534 197.622284 94.834984 4.728933 79.575066 0.26831 -2.001698 -0.729251 -10.445616 -0.900303 -0.949376 14.075982 -1.70385 -3.704085 11.684983 -2.617218 2.99684 -2.67564 -0.891211 1.286319 -33.610996 -0.47717 1.297004 6e-06 0.0 -1e-06 -0.022718 0.076029 0.071179 0.066988 0.03576 0.044185 0.06303 0.100539 0.104141 -107.928932 -68.432961 123.084244 11.214139 -21.946365 -1.253076 49.161873 -0.891289 -0.98345 1.881302 0.52426 -25.320694 17.636621 -26.322721 52.411182 -19.466652 -14.395594 29.410378 -0.0 -8.774821 -2e-06 15.167926 -18.024853 6.573678 -0.609776 -1.795653 -3.889327 -4.807087 -11.046809 -2.937849 2e-06 -20.976011 -1e-06 -5.019972 -25.033552 -4.031882 7e-06 1e-06 1e-06 -10.634529 -5.686971 -3.565586 10.573271 -17.922947 -3.113901 3e-06 -13.821206 1e-06 -0.50178 -31.181498 -4.027017 -11.881219 -59.166767 8.068517 -13.982712 -7.150199 -2.875041 13.772728 -8.401489 -3.218242 0.347732 -34.211544 0.771653 -0.963027 -17.733368 2.621017 -0.0 3e-06 -0.0 -17.346413 -20.095213 -4.201779 21.757555 -1.638373 3.866426 0.0 -6.338822 1e-06 -1.697592 -22.59174 -6.194007 -1e-06 -4e-06 -2e-06 75.803787 -71.491074 118.931137 3.130861 -36.506622 17.879221 51.981045 -0.102902 0.647621 -2.486634 -0.326878 2.317055 22.182108 -20.375895 49.933319 -16.701809 -16.743532 28.476524 -2e-06 -12.690601 0.0 16.31469 -18.209599 2.889358 -0.105919 -1.513855 -4.275881 -5.03904 -5.612871 -2.953556 2e-06 -11.02052 -1e-06 -6.111298 -15.89533 -3.840469 0.0 0.0 0.0 -10.283371 -5.680285 -4.341837 11.028293 -11.302401 -2.372632 -1.384269 -14.238579 -6.320119 -0.625441 -26.924183 -3.8276 -3.852016 -50.287766 -3.767236 -13.708524 -7.363475 -3.720937 18.14115 -14.052738 -3.242676 5e-06 -18.78727 -2e-06 -0.429713 -8.456043 2.555504 1e-06 -1e-06 1e-06 -15.923538 -20.094479 -5.473579 30.41921 -7.190823 1.735924 2e-06 -8.162925 -1e-06 -1.861905 -22.861469 -6.167941 -0.0 -3e-06 -1e-06 -175.123322 10.444173 -10.777369 6.267181 -0.117032 0.002992 -77.735748 -6.792099 -0.394249 -8.198783 1.579915 1.981495 -0.999999 -0.0 0.0 -14.213806 -13.145898 3.365923 73.738426 -0.515737 0.496346 -59.630688 7.677274 -4.013564 -10.066983 0.756034 1.586543 -1.000001 -0.0 0.0 
0.0 0.0 0.0 0.0 -0.0 0.0 -14.524139 99.183937 199.511581 93.882683 4.382607 79.368271 0.460966 -1.692106 -0.961896 -10.360441 -0.816113 -1.366046 13.908446 -1.070647 -4.07222 11.527957 -2.137279 2.82933 -2.677014 -0.801697 1.505584 -34.149448 -0.681017 1.431351 6e-06 0.0 0.0 -0.024214 0.066973 0.050018 0.06873 0.028015 0.020001 0.065528 0.091328 0.083903 -107.182137 -69.138832 122.18251 11.240824 -21.860334 -2.314383 49.260796 -1.227054 -1.190661 1.814873 0.774523 -25.147692 17.636627 -26.322737 52.411198 -19.466658 -14.395604 29.410393 0.0 -8.774824 -1e-06 15.142591 -17.965485 6.563818 -0.609774 -1.795652 -3.889328 -4.807092 -11.046812 -2.93785 2e-06 -20.976019 2e-06 -5.019974 -25.033556 -4.031879 7e-06 -0.0 -0.0 -10.634533 -5.686968 -3.565587 10.573272 -17.922951 -3.113899 1e-06 -13.821213 3e-06 -0.501781 -31.181505 -4.027013 -11.806824 -59.007816 8.046632 -13.982714 -7.150199 -2.875043 13.77273 -8.401489 -3.218242 0.347728 -34.211555 0.771658 -0.963033 -17.73337 2.62102 -0.0 0.0 2e-06 -17.34642 -20.095221 -4.201779 21.757566 -1.638373 3.866428 -1e-06 -6.338825 2e-06 -1.69759 -22.591751 -6.194007 -2e-06 -4e-06 -3e-06 75.718918 -70.655518 118.998535 1.971886 -37.884628 18.24044 52.09758 0.153372 0.737699 -2.175259 0.213669 0.109781 22.18211 -20.375891 49.933319 -16.701813 -16.74353 28.476532 -3e-06 -12.690602 -1e-06 16.267075 -18.414143 2.933372 -0.105919 -1.513855 -4.275882 -5.039042 -5.612874 -2.953556 3e-06 -11.020523 -2e-06 -6.111298 -15.895334 -3.840471 -0.0 -0.0 0.0 -10.283373 -5.680288 -4.341838 11.028296 -11.302406 -2.372633 -1.384269 -14.238581 -6.320122 -0.625438 -26.924191 -3.827603 -3.88118 -50.304596 -3.886661 -13.708527 -7.363479 -3.720939 18.141148 -14.052737 -3.242673 6e-06 -18.78727 -3e-06 -0.42971 -8.456043 2.555504 -0.0 1e-06 0.0 -15.923536 -20.094484 -5.473584 30.419214 -7.190825 1.735926 4e-06 -8.162925 -2e-06 -1.861904 -22.861469 -6.167942 0.0 -3e-06 -1e-06 -174.064514 9.617487 -10.868601 6.155694 -0.123823 0.033871 -78.634262 -6.631869 -0.182947 -8.079293 1.525925 1.977759 -0.999999 -0.0 -0.0 -18.122789 -11.628866 2.612342 70.64183 -0.283352 0.368715 -64.201111 3.286206 -4.351433 -10.282423 0.732868 1.589021 -1.000005 -0.0 -0.0 
0.0 0.0 0.0 0.0 -0.0 0.0 -14.531403 99.285599 201.410599 92.995338 3.77123 79.208382 0.495998 -1.40751 -1.146834 -10.330423 -0.756333 -1.774379 13.79651 -0.389028 -4.461151 11.214814 -1.678974 2.631838 -2.69636 -0.714681 1.747486 -34.541824 -0.886325 1.546035 8e-06 -0.0 0.0 -0.027043 0.064138 0.037645 0.070504 0.016492 0.007249 0.067351 0.098229 0.069627 -106.709946 -69.774994 121.507973 11.064191 -21.759544 -3.299574 49.525284 -1.477235 -1.360564 1.715327 0.843947 -24.955463 17.636625 -26.322729 52.411205 -19.466661 -14.395596 29.410395 0.0 -8.774822 -2e-06 15.129346 -17.934912 6.592368 -0.609777 -1.795656 -3.889328 -4.807088 -11.046809 -2.93785 3e-06 -20.976019 -2e-06 -5.019969 -25.03356 -4.031883 5e-06 -1e-06 -2e-06 -10.634536 -5.686973 -3.565588 10.573271 -17.922951 -3.113902 2e-06 -13.821209 0.0 -0.501777 -31.181505 -4.027017 -11.790907 -58.910049 8.026473 -13.982716 -7.1502 -2.875043 13.77273 -8.401491 -3.218244 0.347734 -34.211544 0.771652 -0.96303 -17.73337 2.621018 -1e-06 0.0 1e-06 -17.346422 -20.095221 -4.201783 21.757555 -1.638374 3.866429 0.0 -6.338824 2e-06 -1.69759 -22.591747 -6.19401 -3e-06 -3e-06 -1e-06 74.74852 -69.691505 120.068581 1.013714 -38.911354 18.089434 51.943485 0.35414 0.782937 -1.796037 0.775237 -2.000094 22.182108 -20.375891 49.933319 -16.701811 -16.74353 28.476528 -2e-06 -12.6906 -0.0 16.22711 -18.52372 2.959065 -0.105918 -1.513856 -4.275881 -5.03904 -5.612866 -2.953555 4e-06 -11.02052 -1e-06 -6.111297 -15.89533 -3.840469 -0.0 -0.0 0.0 -10.283367 -5.680288 -4.341838 11.028293 -11.302402 -2.372633 -1.384268 -14.238579 -6.32012 -0.625437 -26.924187 -3.8276 -4.008086 -50.268845 -3.933394 -13.708523 -7.363475 -3.720938 18.141148 -14.052739 -3.242674 6e-06 -18.78727 -3e-06 -0.429712 -8.456043 2.555503 0.0 -1e-06 0.0 -15.923532 -20.094479 -5.473584 30.41921 -7.190827 1.735925 2e-06 -8.162925 -1e-06 -1.8619 -22.861467 -6.167942 0.0 -2e-06 -1e-06 -173.268738 8.73998 -11.091849 6.001301 -0.107019 0.040785 -79.343651 -6.241078 -0.014069 -7.902843 1.46882 1.984036 -0.999999 0.0 0.0 -21.31414 -9.875783 1.623699 64.124611 -0.1551 0.234003 -67.437019 0.27983 -5.270241 -10.4884 0.718639 1.579009 -1.000003 0.0 0.0 
0.0 0.0 0.0 0.0 -0.0 0.0 -14.551889 99.294609 203.252106 92.399742 2.974262 79.100296 0.362384 -1.268061 -1.259349 -10.348556 -0.763007 -2.187163 13.7591 0.232445 -4.80253 10.754158 -1.192783 2.48311 -2.72677 -0.678275 1.876015 -34.833599 -1.048546 1.656348 5e-06 0.0 0.0 -0.022439 0.05526 0.021547 0.085471 -0.013375 -0.00743 0.085914 0.110902 0.050294 -106.145515 -70.374702 120.708443 10.814769 -21.688076 -3.975699 49.961475 -1.618279 -1.534326 1.504242 0.825081 -24.479908 17.636625 -26.322733 52.411194 -19.466658 -14.395597 29.410389 0.0 -8.774822 -3e-06 15.168829 -17.956205 6.606221 -0.609775 -1.795652 -3.889327 -4.807089 -11.046809 -2.93785 2e-06 -20.976015 -1e-06 -5.019974 -25.03356 -4.03188 4e-06 0.0 -0.0 -10.634535 -5.686968 -3.565587 10.573271 -17.922947 -3.113899 -0.0 -13.821209 1e-06 -0.501783 -31.181505 -4.027014 -11.847943 -58.937191 7.997706 -13.982716 -7.150197 -2.87504 13.772732 -8.401489 -3.218243 0.347733 -34.211544 0.771656 -0.963029 -17.73337 2.621019 -1e-06 0.0 1e-06 -17.346422 -20.095215 -4.20178 21.757563 -1.638371 3.866428 1e-06 -6.338823 3e-06 -1.697594 -22.591742 -6.194006 -2e-06 -3e-06 -2e-06 73.21138 -68.686661 121.75486 0.219648 -39.634346 17.412008 51.49931 0.377531 0.715106 -1.519894 1.418415 -3.503379 22.182116 -20.375898 49.933327 -16.701815 -16.74353 28.47654 -2e-06 -12.690601 1e-06 16.214529 -18.523668 2.960516 -0.105918 -1.513857 -4.275882 -5.039041 -5.61287 -2.953557 5e-06 -11.020524 -2e-06 -6.111296 -15.89533 -3.840471 0.0 -0.0 -0.0 -10.283371 -5.680286 -4.34184 11.028296 -11.302406 -2.372634 -1.384268 -14.238579 -6.320122 -0.625436 -26.924189 -3.827602 -4.175521 -50.224743 -3.89816 -13.708524 -7.363478 -3.72094 18.14115 -14.052738 -3.242676 7e-06 -18.78727 -2e-06 -0.429711 -8.456044 2.555504 0.0 -0.0 -0.0 -15.923536 -20.094484 -5.473585 30.419214 -7.190826 1.735924 2e-06 -8.162926 -0.0 -1.861901 -22.861469 -6.167942 -1e-06 -2e-06 -1e-06 -172.747192 8.087234 -11.356686 5.847257 -0.066128 0.026923 -80.143127 -5.715364 0.233655 -7.671987 1.427223 1.991795 -0.999998 0.0 -0.0 -23.581871 -8.29006 0.353056 54.715778 -0.137158 0.164116 -69.006073 -1.800163 -6.525596 -10.678095 0.747529 1.587731 -1.000004 1e-06 0.0 
